Coordinates
version=1
nRows=26
nColumns=22
inDegrees=yes

Units are S.I. units (second, meters, Newtons, ...)
If the header above contains a line with 'inDegrees', this indicates whether rotational values are in degrees (yes) or radians (no).

endheader
time	pelvis_tilt	pelvis_list	pelvis_rotation	pelvis_tx	pelvis_ty	pelvis_tz	hip_flexion_r	hip_adduction_r	hip_rotation_r	knee_angle_r	ankle_angle_r	subtalar_angle_r	hip_flexion_l	hip_adduction_l	hip_rotation_l	knee_angle_l	ankle_angle_l	subtalar_angle_l	lumbar_extension	lumbar_bending	lumbar_rotation
      1.31000000	     -5.67179641	     -7.99278075	      2.96147700	     -1.04405349	      0.97557537	      0.01606663	      9.30502246	      7.10434889	     -5.19525790	    -15.05315968	      9.63475342	      2.62120516	      7.19596500	     -6.22368151	      5.62379305	    -10.83197229	     11.50811328	     -3.84815663	      3.26801040	      5.75293294	     -6.81324445
      1.32000000	     -5.74185201	     -8.00656637	      2.93798111	     -1.04369518	      0.97556329	      0.01544339	      9.31872562	      7.07884660	     -5.18675001	    -14.98941245	      9.60269163	      2.66677453	      7.16726736	     -6.20683580	      5.56378311	    -10.69457644	     11.45888688	     -3.83826136	      3.27932674	      5.73686252	     -6.79603655
      1.33000000	     -5.81847387	     -8.01196330	      2.90596559	     -1.04333675	      0.97555120	      0.01481456	      9.33451841	      7.04483722	     -5.16328073	    -14.91846201	      9.57785824	      2.71669886	      7.11621670	     -6.18420419	      5.48598290	    -10.51050909	     11.39470869	     -3.82383197	      3.29447395	      5.71191166	     -6.77117157
      1.34000000	     -5.89982367	     -8.01623127	      2.88049834	     -1.04298359	      0.97553443	      0.01417255	      9.35250731	      7.00725704	     -5.15112992	    -14.84157982	      9.55326341	      2.76642386	      7.04866329	     -6.16251606	      5.40532303	    -10.28704212	     11.32562492	     -3.80685272	      3.31275970	      5.68378219	     -6.76179880
      1.35000000	     -5.98571402	     -8.01947789	      2.86300631	     -1.04264319	      0.97550814	      0.01350715	      9.37500281	      6.96581660	     -5.14709582	    -14.76248753	      9.52681316	      2.81679071	      6.96633590	     -6.13996690	      5.33186049	    -10.02596227	     11.24528629	     -3.78665703	      3.33356212	      5.65496254	     -6.76713632
      1.36000000	     -6.07237990	     -8.02084393	      2.85505599	     -1.04232285	      0.97547579	      0.01283164	      9.39914468	      6.92064072	     -5.15042128	    -14.68279024	      9.50177210	      2.87185035	      6.87020890	     -6.11637549	      5.26962913	     -9.73496201	     11.15446810	     -3.76382534	      3.35142476	      5.62127366	     -6.78470897
      1.37000000	     -6.12418042	     -8.00555658	      2.85677355	     -1.04198629	      0.97547517	      0.01211504	      9.37764676	      6.85555068	     -5.15752339	    -14.59367512	      9.50457221	      2.99410299	      6.72182990	     -6.07509470	      5.19870963	     -9.41952785	     11.06705163	     -3.74374149	      3.32864388	      5.57447567	     -6.81428881
      1.38000000	     -6.23253904	     -8.03347181	      2.87105072	     -1.04175290	      0.97538608	      0.01140655	      9.43621236	      6.83172889	     -5.18871842	    -14.52116557	      9.46716488	      3.02583448	      6.65893001	     -6.07495097	      5.17052964	     -9.12755136	     10.98812047	     -3.72526104	      3.36356184	      5.57090199	     -6.85828351
      1.39000000	     -6.33449836	     -8.05349071	      2.89576628	     -1.04155318	      0.97529339	      0.01068369	      9.48854326	      6.79885025	     -5.22295342	    -14.44764899	      9.43775445	      3.06402162	      6.59496374	     -6.06329454	      5.15786129	     -8.84000822	     10.90359614	     -3.70992123	      3.38747228	      5.55835079	     -6.91153208
      1.40000000	     -6.43339709	     -8.08027465	      2.92486494	     -1.04140307	      0.97518961	      0.00995006	      9.54280313	      6.77135328	     -5.26098100	    -14.37793829	      9.41040820	      3.10605746	      6.54615518	     -6.05536314	      5.15907358	     -8.57763415	     10.82841551	     -3.70274713	      3.40305038	      5.55597709	     -6.96573459
      1.41000000	     -6.53255081	     -8.11557581	      2.95826640	     -1.04131062	      0.97507136	      0.00923289	      9.60365769	      6.75377930	     -5.30130352	    -14.31163362	      9.38262875	      3.15297441	      6.52312754	     -6.05449241	      5.17514972	     -8.35120664	     10.76615039	     -3.70768905	      3.41377674	      5.56007187	     -7.02111512
      1.42000000	     -6.63585691	     -8.16031965	      2.99418068	     -1.04127785	      0.97493559	      0.00851903	      9.67755201	      6.74533744	     -5.34273516	    -14.25293779	      9.35137652	      3.20189749	      6.53203855	     -6.06032659	      5.21299976	     -8.16434026	     10.71335122	     -3.72475855	      3.42426974	      5.57520291	     -7.07253313
      1.43000000	     -6.74282296	     -8.21230768	      3.03533989	     -1.04130294	      0.97478148	      0.00781924	      9.76435901	      6.74462292	     -5.38699315	    -14.20320281	      9.31913212	      3.25047001	      6.57672521	     -6.07115403	      5.27196867	     -8.02428168	     10.67569088	     -3.75449831	      3.43394891	      5.59506576	     -7.12177382
      1.44000000	     -6.86068102	     -8.27122403	      3.09296976	     -1.04140089	      0.97459918	      0.00710558	      9.87490410	      6.74675603	     -5.44948308	    -14.16553608	      9.29101473	      3.31093827	      6.67914839	     -6.08277503	      5.36450822	     -7.95095832	     10.65724307	     -3.81244442	      3.45127855	      5.62103513	     -7.18433933
      1.45000000	     -6.97034922	     -8.32765372	      3.15231371	     -1.04153977	      0.97441296	      0.00637547	      9.98696857	      6.74448240	     -5.51009317	    -14.14232728	      9.27054058	      3.36277132	      6.80587535	     -6.08781216	      5.46519323	     -7.93090356	     10.66198371	     -3.87539583	      3.45609644	      5.64993809	     -7.24150287
      1.46000000	     -7.06516843	     -8.37974635	      3.21868225	     -1.04169784	      0.97423973	      0.00565446	     10.08485585	      6.73898271	     -5.57473678	    -14.11901536	      9.25433082	      3.40474838	      6.94711031	     -6.08650155	      5.57992044	     -7.95982464	     10.68940560	     -3.93344949	      3.44233865	      5.67107467	     -7.28359557
      1.47000000	     -7.14266447	     -8.43093222	      3.28911710	     -1.04188286	      0.97408429	      0.00492306	     10.17271685	      6.73183151	     -5.64239138	    -14.10780553	      9.24353943	      3.44115506	      7.10330585	     -6.08147671	      5.70728094	     -8.04343489	     10.72387212	     -3.98611868	      3.40740269	      5.69657554	     -7.31460684
      1.48000000	     -7.20915629	     -8.48045249	      3.35958587	     -1.04207271	      0.97394161	      0.00421768	     10.25446114	      6.72511228	     -5.71109669	    -14.10486741	      9.23636497	      3.47569732	      7.26877762	     -6.07497723	      5.84320134	     -8.16241662	     10.76771011	     -4.03522017	      3.36043610	      5.71655848	     -7.32985690
      1.49000000	     -7.26187072	     -8.52565564	      3.42944694	     -1.04224515	      0.97381620	      0.00351533	     10.32563338	      6.71518142	     -5.77721735	    -14.11128725	      9.23340988	      3.50910842	      7.43790014	     -6.06267697	      5.98502295	     -8.31665877	     10.82044357	     -4.08104530	      3.30196206	      5.73504645	     -7.32542903
      1.50000000	     -7.32445297	     -8.57466947	      3.49310959	     -1.04240393	      0.97368058	      0.00281864	     10.41566975	      6.70699000	     -5.86036979	    -14.13209798	      9.24286249	      3.55420254	      7.63059288	     -6.05187598	      6.14407446	     -8.49765847	     10.85875714	     -4.13331689	      3.26148369	      5.75907421	     -7.30402765
      1.51000000	     -7.32543937	     -8.59048347	      3.53232470	     -1.04247843	      0.97362881	      0.00214306	     10.43507974	      6.67658658	     -5.87381470	    -14.15851372	      9.24169336	      3.57292601	      7.73960272	     -6.01307040	      6.26164122	     -8.67118965	     10.93333437	     -4.16210255	      3.15642480	      5.75238447	     -7.24555865
      1.52000000	     -7.36554127	     -8.62410376	      3.58864197	     -1.04254755	      0.97351557	      0.00145142	     10.51567954	      6.65355634	     -5.94816764	    -14.21673913	      9.27237565	      3.62381051	      7.91140727	     -5.98604283	      6.41227655	     -8.87451649	     10.98469473	     -4.21515593	      3.10734166	      5.76161359	     -7.20086556
      1.53000000	     -7.34764077	     -8.62690382	      3.61108977	     -1.04249854	      0.97348608	      0.00078542	     10.52568004	      6.61223171	     -5.94807634	    -14.27737549	      9.28500372	      3.63796427	      7.97967240	     -5.93651444	      6.51808288	     -9.03529768	     11.05860173	     -4.24031128	      3.00243123	      5.74386094	     -7.10864649
      1.54000000	     -7.33032160	     -8.62579159	      3.63673770	     -1.04239342	      0.97344207	      0.00010742	     10.54936443	      6.56302013	     -5.96876870	    -14.36761025	      9.32605616	      3.65503814	      8.04338421	     -5.88147643	      6.61954872	     -9.19402873	     11.13256641	     -4.27252383	      2.91026656	      5.72283009	     -7.01864443
      1.55000000	     -7.31359800	     -8.61589142	      3.66142714	     -1.04222081	      0.97339099	     -0.00057353	     10.58197770	      6.50369197	     -5.98772813	    -14.48126857	      9.37784851	      3.67450407	      8.09020940	     -5.81731520	      6.71840761	     -9.33157295	     11.20128878	     -4.30948935	      2.82954006	      5.69312248	     -6.92597688
      1.56000000	     -7.29470460	     -8.59810244	      3.68472748	     -1.04196434	      0.97333309	     -0.00125421	     10.61818116	      6.43625835	     -6.00335626	    -14.61604101	      9.43988663	      3.69517455	      8.11458905	     -5.74537180	      6.81214381	     -9.44682240	     11.26425252	     -4.35105803	      2.75810385	      5.65505616	     -6.83428711
